<svg xmlns="http://www.w3.org/2000/svg" xmlns:xlink="http://www.w3.org/1999/xlink" width="873.446" height="443.855" viewBox="0 0 873.446 443.855">
  <defs>
    <clipPath id="clip-path">
      <path id="Path_2069" data-name="Path 2069" d="M0,0H873.446V-443.855H0Z" fill="none"/>
    </clipPath>
  </defs>
  <g id="Group_73" data-name="Group 73" transform="translate(0 443.855)">
    <path id="Path_2064" data-name="Path 2064" d="M637.032-290.313h69.891v-31.235H637.032Z" fill="none" stroke="#f7ba47" stroke-width="2"/>
    <g id="Group">
      <text id="Save_the_" data-name="Save the " transform="translate(652.197 -308.717)" font-size="10" font-family="Helvetica-Normal"><tspan x="0" y="0">Save the </tspan></text>
      <text id="order" transform="translate(660.641 -296.224)" font-size="10" font-family="Helvetica-Normal"><tspan x="0" y="0">order</tspan></text>
    </g>
    <path id="Path_2065" data-name="Path 2065" d="M75.554,0H873.446V-173.731H75.554Z" fill="#e8e8e8"/>
    <g id="Group_58" data-name="Group 58" transform="translate(867.44 -89.621)">
      <path id="Path_2066" data-name="Path 2066" d="M0,0H-791.886" fill="none" stroke="#000" stroke-width="1" stroke-dasharray="3.979 3.979"/>
    </g>
    <g id="Group_59" data-name="Group 59" transform="translate(159.929 -288.936)">
      <path id="Path_2067" data-name="Path 2067" d="M0,0V245.823H-25.785M4.1,4.4,0,0-4.1,4.4M274.131,0V215.07M270.034,4.4l4.1-4.4,4.1,4.4" fill="none" stroke="#000" stroke-width="2"/>
    </g>
    <path id="Path_2068" data-name="Path 2068" d="M83.059-380.3H152.95v-31.234H83.059Z" fill="none" stroke="#0f7ce8" stroke-width="2"/>
    <g id="Group-2" data-name="Group">
      <text id="CUS" transform="translate(14.693 -404.833)" font-size="10" font-family="Helvetica-Bold, Helvetica" font-weight="700"><tspan x="0" y="0">CUS</tspan></text>
      <text id="TO" transform="translate(36.671 -404.833)" font-size="10" font-family="Helvetica-Bold, Helvetica" font-weight="700"><tspan x="0" y="0">TO</tspan></text>
      <text id="MER_" data-name="MER " transform="translate(50.726 -404.833)" font-size="10" font-family="Helvetica-Bold, Helvetica" font-weight="700"><tspan x="0" y="0">MER </tspan></text>
      <text id="JOURN" transform="translate(24.511 -392.34)" font-size="10" font-family="Helvetica-Bold, Helvetica" font-weight="700"><tspan x="0" y="0">JOURN</tspan></text>
      <text id="AY" transform="translate(60.949 -392.34)" font-size="10" font-family="Helvetica-Bold, Helvetica" font-weight="700"><tspan x="0" y="0">AY</tspan></text>
      <text id="BA" transform="translate(6.312 -141.643)" font-size="10" font-family="Helvetica-Bold, Helvetica" font-weight="700"><tspan x="0" y="0">BA</tspan></text>
      <text id="CKS" transform="translate(20.638 -141.643)" font-size="10" font-family="Helvetica-Bold, Helvetica" font-weight="700"><tspan x="0" y="0">CKS</tspan></text>
      <text id="TA" transform="translate(42.615 -141.643)" font-size="10" font-family="Helvetica-Bold, Helvetica" font-weight="700"><tspan x="0" y="0">TA</tspan></text>
      <text id="GE_" data-name="GE " transform="translate(55.046 -141.643)" font-size="10" font-family="Helvetica-Bold, Helvetica" font-weight="700"><tspan x="0" y="0">GE </tspan></text>
      <text id="MT" transform="translate(47.342 -129.15)" font-size="10" font-family="Helvetica-Bold, Helvetica" font-weight="700"><tspan x="0" y="0">MT</tspan></text>
      <text id="O" transform="translate(61.959 -129.15)" font-size="10" font-family="Helvetica-Bold, Helvetica" font-weight="700"><tspan x="0" y="0">O</tspan></text>
    </g>
    <g id="Group_60" data-name="Group 60" clip-path="url(#clip-path)">
      <text id="INTERA" transform="translate(-0.666 -116.658)" font-size="10" font-family="Helvetica-Bold, Helvetica" font-weight="700"><tspan x="0" y="0">INTERA</tspan></text>
    </g>
    <g id="Group-3" data-name="Group">
      <text id="CTION" transform="translate(37.677 -116.658)" font-size="10" font-family="Helvetica-Bold, Helvetica" font-weight="700"><tspan x="0" y="0">CTION</tspan></text>
      <text id="AI_PR" data-name="AI PR" transform="translate(6.048 -54.473)" font-size="10" font-family="Helvetica-Bold, Helvetica" font-weight="700"><tspan x="0" y="0">AI PR</tspan></text>
      <text id="OCESS" transform="translate(33.617 -54.473)" font-size="10" font-family="Helvetica-Bold, Helvetica" font-weight="700"><tspan x="0" y="0">OCESS</tspan></text>
      <text id="SUPPO" transform="translate(19.936 -41.98)" font-size="10" font-family="Helvetica-Bold, Helvetica" font-weight="700"><tspan x="0" y="0">SUPPO</tspan></text>
      <text id="RT" transform="translate(56.385 -41.98)" font-size="10" font-family="Helvetica-Bold, Helvetica" font-weight="700"><tspan x="0" y="0">RT</tspan></text>
    </g>
    <g id="Group_61" data-name="Group 61" transform="translate(75.554 -350.311)">
      <path id="Path_2070" data-name="Path 2070" d="M0,0H776.188" fill="none" stroke="#000" stroke-width="2" stroke-dasharray="4.022 4.022"/>
    </g>
    <g id="Group-4" data-name="Group">
      <text id="line_of_interactio" data-name="line of  interactio" transform="translate(2.149 -347.888)" font-size="9" font-family="Helvetica"><tspan x="0" y="0" xml:space="preserve">line of  interactio</tspan></text>
      <text id="n" transform="translate(65.222 -347.888)" font-size="9" font-family="Helvetica"><tspan x="0" y="0">n</tspan></text>
    </g>
    <g id="Group-5" data-name="Group">
      <text id="Indicates_phy" data-name="Indicates phy" transform="translate(324.085 -398.587)" font-size="10" font-family="Helvetica-Normal"><tspan x="0" y="0">Indicates phy</tspan></text>
      <text id="sical_model" data-name="sical model" transform="translate(324.085 -386.094)" font-size="10" font-family="Helvetica-Normal"><tspan x="0" y="0">sical model</tspan></text>
      <text id="model" transform="translate(339.139 -367.843)" font-size="10" font-family="Helvetica-Normal"><tspan x="0" y="0">model</tspan></text>
      <text id="s" transform="translate(367.561 -367.843)" font-size="10" font-family="Helvetica-Normal"><tspan x="0" y="0">s</tspan></text>
    </g>
    <path id="Path_2071" data-name="Path 2071" d="M321.034-380.3h69.891v-31.234H321.034Z" fill="none" stroke="#0f7ce8" stroke-width="2"/>
    <g id="Group-6" data-name="Group">
      <text id="Discusses_th" data-name="Discusses th" transform="translate(404.234 -398.271)" font-size="10" font-family="Helvetica-Normal"><tspan x="0" y="0">Discusses th</tspan></text>
      <text id="e" transform="translate(463.473 -398.271)" font-size="10" font-family="Helvetica-Normal"><tspan x="0" y="0">e</tspan></text>
      <text id="customizatio" transform="translate(402.225 -385.778)" font-size="10" font-family="Helvetica-Normal"><tspan x="0" y="0">customizatio</tspan></text>
      <text id="n-2" data-name="n" transform="translate(460.235 -385.778)" font-size="10" font-family="Helvetica-Normal"><tspan x="0" y="0">n</tspan></text>
    </g>
    <path id="Path_2072" data-name="Path 2072" d="M400.359-380.3H470.25v-31.234H400.359Z" fill="none" stroke="#0f7ce8" stroke-width="2"/>
    <g id="Group-7" data-name="Group">
      <text id="Chooses_the_" data-name="Chooses the " transform="translate(487.905 -398.271)" font-size="10" font-family="Helvetica-Normal"><tspan x="0" y="0">Chooses the </tspan></text>
      <text id="best_one" data-name="best one" transform="translate(494.578 -385.778)" font-size="10" font-family="Helvetica-Normal"><tspan x="0" y="0">best one</tspan></text>
    </g>
    <path id="Path_2073" data-name="Path 2073" d="M479.684-380.3h69.89v-31.234h-69.89Z" fill="none" stroke="#0f7ce8" stroke-width="2"/>
    <g id="Group-8" data-name="Group">
      <text id="Make_" data-name="Make " transform="translate(654.407 -398.587)" font-size="10" font-family="Helvetica-Normal"><tspan x="0" y="0">Make </tspan></text>
      <text id="a" transform="translate(682.85 -398.587)" font-size="10" font-family="Helvetica-Normal"><tspan x="0" y="0">a</tspan></text>
      <text id="_purchase" data-name=" purchase" transform="translate(648.587 -386.094)" font-size="10" font-family="Helvetica-Normal"><tspan x="0" y="0" xml:space="preserve"> purchase</tspan></text>
    </g>
    <path id="Path_2074" data-name="Path 2074" d="M636.6-380.617h69.891v-31.235H636.6Z" fill="none" stroke="#0f7ce8" stroke-width="2"/>
    <g id="Group-9" data-name="Group">
      <text id="Deliver" transform="translate(735.921 -398.587)" font-size="10" font-family="Helvetica-Normal"><tspan x="0" y="0">Deliver</tspan></text>
      <text id="y" transform="translate(768.351 -398.587)" font-size="10" font-family="Helvetica-Normal"><tspan x="0" y="0">y</tspan></text>
      <text id="notificatio" transform="translate(729.852 -386.094)" font-size="10" font-family="Helvetica-Normal"><tspan x="0" y="0">notificatio</tspan></text>
      <text id="n-3" data-name="n" transform="translate(773.848 -386.094)" font-size="10" font-family="Helvetica-Normal"><tspan x="0" y="0">n</tspan></text>
    </g>
    <path id="Path_2075" data-name="Path 2075" d="M715.726-380.617h69.891v-31.235H715.726Z" fill="none" stroke="#0f7ce8" stroke-width="2"/>
    <text id="Get_a" data-name="Get a" transform="translate(816.046 -398.587)" font-size="10" font-family="Helvetica-Normal"><tspan x="0" y="0">Get a</tspan></text>
    <text id="_" data-name=" " transform="translate(841.539 -398.587)" font-size="12" font-family="Helvetica-Normal"><tspan x="0" y="0"> </tspan></text>
    <g id="Group-10" data-name="Group">
      <text id="deliver-2" data-name="deliver" transform="translate(810.809 -386.094)" font-size="10" font-family="Helvetica-Normal"><tspan x="0" y="0">deliver</tspan></text>
      <text id="y-2" data-name="y" transform="translate(841.521 -386.094)" font-size="10" font-family="Helvetica-Normal"><tspan x="0" y="0">y</tspan></text>
    </g>
    <path id="Path_2076" data-name="Path 2076" d="M793.854-380.617h69.891v-31.235H793.854Z" fill="none" stroke="#0f7ce8" stroke-width="2"/>
    <g id="Group-11" data-name="Group">
      <text id="Books_an" data-name="Books an" transform="translate(96.199 -398.271)" font-size="10" font-family="Helvetica-Normal"><tspan x="0" y="0">Books an</tspan></text>
      <text id="appointment" transform="translate(89.276 -385.778)" font-size="10" font-family="Helvetica-Normal"><tspan x="0" y="0">appointment</tspan></text>
      <text id="Meets_the_" data-name="Meets the " transform="translate(256.362 -398.271)" font-size="10" font-family="Helvetica-Normal"><tspan x="0" y="0">Meets the </tspan></text>
      <text id="MT-2" data-name="MT" transform="translate(265.138 -385.778)" font-size="10" font-family="Helvetica-Normal"><tspan x="0" y="0">MT</tspan></text>
      <text id="O-2" data-name="O" transform="translate(280.068 -385.778)" font-size="10" font-family="Helvetica-Normal"><tspan x="0" y="0">O</tspan></text>
    </g>
    <path id="Path_2077" data-name="Path 2077" d="M241.839-380.3h69.629v-31.234H241.839Z" fill="none" stroke="#0f7ce8" stroke-width="2"/>
    <g id="Group-12" data-name="Group">
      <text id="Arrives_at_the_" data-name="Arrives at the " transform="translate(169.247 -398.271)" font-size="10" font-family="Helvetica-Normal"><tspan x="0" y="0">Arrives at the </tspan></text>
      <text id="event" transform="translate(184.54 -385.778)" font-size="10" font-family="Helvetica-Normal"><tspan x="0" y="0">event</tspan></text>
    </g>
    <path id="Path_2078" data-name="Path 2078" d="M162.384-380.3h69.891v-31.234H162.384Z" fill="none" stroke="#0f7ce8" stroke-width="2"/>
    <g id="Group_62" data-name="Group 62" transform="translate(118.438 -379.301)">
      <path id="Path_2079" data-name="Path 2079" d="M0,0V304.038m3.993-4.4L0,304.038l-3.992-4.4" fill="none" stroke="#000" stroke-width="2"/>
    </g>
    <g id="Group-13" data-name="Group">
      <text id="Review" transform="translate(575.289 -398.587)" font-size="10" font-family="Helvetica-Normal"><tspan x="0" y="0">Review</tspan></text>
      <text id="the_form" data-name="the form" transform="translate(573.3 -386.094)" font-size="10" font-family="Helvetica-Normal"><tspan x="0" y="0">the form</tspan></text>
    </g>
    <path id="Path_2080" data-name="Path 2080" d="M557.469-380.617H627.36v-31.235H557.469Z" fill="none" stroke="#0f7ce8" stroke-width="2"/>
    <g id="Group-14" data-name="Group">
      <text id="line_of_interactio-2" data-name="line of  interactio" transform="translate(2.149 -87.658)" font-size="9" font-family="Helvetica"><tspan x="0" y="0" xml:space="preserve">line of  interactio</tspan></text>
      <text id="n-4" data-name="n" transform="translate(65.222 -87.658)" font-size="9" font-family="Helvetica"><tspan x="0" y="0">n</tspan></text>
    </g>
    <path id="Path_2081" data-name="Path 2081" d="M84.014-16.616h70.155V-73.34H84.014Z" fill="#fff"/>
    <path id="Path_2082" data-name="Path 2082" d="M84.08-16.683H154.1V-73.275H84.08Z" fill="none" stroke="#e8e8e8" stroke-width="1"/>
    <text id="Added_to" data-name="Added to" transform="translate(98.318 -48.112)" font-size="10" font-family="Helvetica-Normal"><tspan x="0" y="0">Added to</tspan></text>
    <text id="_2" data-name=" " transform="translate(140.105 -48.112)" font-size="12" font-family="Helvetica-Normal"><tspan x="0" y="0"> </tspan></text>
    <text id="the_database_" data-name="the database " transform="translate(89.01 -35.619)" font-size="10" font-family="Helvetica-Normal"><tspan x="0" y="0">the database </tspan></text>
    <path id="Path_2083" data-name="Path 2083" d="M122.721-290.313h69.891v-31.235H122.721Z" fill="none" stroke="#f7ba47" stroke-width="2"/>
    <g id="Group-15" data-name="Group">
      <text id="Notification_" data-name="Notification " transform="translate(131.89 -308.283)" font-size="10" font-family="Helvetica-Normal"><tspan x="0" y="0">Notification </tspan></text>
      <text id="visualized" transform="translate(134.722 -295.79)" font-size="10" font-family="Helvetica-Normal"><tspan x="0" y="0">visualized</tspan></text>
    </g>
    <path id="Path_2084" data-name="Path 2084" d="M183.412-116.252h70.155v-31.5H183.412Z" fill="#fff"/>
    <path id="Path_2085" data-name="Path 2085" d="M183.545-116.385h69.891V-147.62H183.545Z" fill="none" stroke="#f7ba47" stroke-width="2"/>
    <path id="Path_2086" data-name="Path 2086" d="M241.615-290.313h69.891v-31.235H241.615Z" fill="none" stroke="#f7ba47" stroke-width="2"/>
    <g id="Group-16" data-name="Group">
      <text id="We" transform="translate(254.88 -302.037)" font-size="10" font-family="Helvetica-Normal"><tspan x="0" y="0">We</tspan></text>
      <text id="lcom" transform="translate(270.382 -302.037)" font-size="10" font-family="Helvetica-Normal"><tspan x="0" y="0">lcom</tspan></text>
      <text id="e-2" data-name="e" transform="translate(292.422 -302.037)" font-size="10" font-family="Helvetica-Normal"><tspan x="0" y="0">e</tspan></text>
    </g>
    <g id="Group_63" data-name="Group 63" transform="translate(218.887 -150.589)">
      <path id="Path_2087" data-name="Path 2087" d="M0,0V-155.554H-25.709M4.085-4.4,0,0-4.085-4.4" fill="none" stroke="#000" stroke-width="2"/>
    </g>
    <path id="Path_2088" data-name="Path 2088" d="M558.582-16.95h70.155V-73.674H558.582Z" fill="#fff"/>
    <g id="Group-17" data-name="Group">
      <text id="CU_profile" data-name="CU profile" transform="translate(567.154 -48.446)" font-size="10" font-family="Helvetica-Normal"><tspan x="0" y="0">CU profile</tspan></text>
      <text id="generated" transform="translate(570.266 -35.953)" font-size="10" font-family="Helvetica-Normal"><tspan x="0" y="0">generated</tspan></text>
    </g>
    <g id="Group_64" data-name="Group 64" transform="translate(277.097 -288.813)">
      <path id="Path_2089" data-name="Path 2089" d="M0,0V155.811H-25.709M4.085,4.4,0,0-4.085,4.4" fill="none" stroke="#000" stroke-width="2"/>
    </g>
    <path id="Path_2090" data-name="Path 2090" d="M320.6-290.313h69.891v-31.235H320.6Z" fill="none" stroke="#f7ba47" stroke-width="2"/>
    <g id="Group-18" data-name="Group">
      <text id="NFCC_" data-name="NFCC " transform="translate(341.043 -309.96)" font-size="10" font-family="Helvetica-Normal"><tspan x="0" y="0">NFCC </tspan></text>
      <text id="scanning" transform="translate(334.609 -297.467)" font-size="10" font-family="Helvetica-Normal"><tspan x="0" y="0">scanning</tspan></text>
    </g>
    <g id="Group_65" data-name="Group 65" transform="translate(276.561 -378.568)">
      <path id="Path_2091" data-name="Path 2091" d="M0,0V54.626M-3.995,4.374,0,0,3.995,4.374m0,45.878L0,54.627l-3.995-4.375" fill="none" stroke="#000" stroke-width="2"/>
    </g>
    <path id="Path_2092" data-name="Path 2092" d="M399.464-290.313h69.891v-31.235H399.464Z" fill="none" stroke="#f7ba47" stroke-width="2"/>
    <text id="Shows_" data-name="Shows " transform="translate(416.414 -309.96)" font-size="10" font-family="Helvetica-Normal"><tspan x="0" y="0">Shows </tspan></text>
    <text id="_3" data-name=" " transform="translate(450.658 -309.96)" font-size="12" font-family="Helvetica-Normal"><tspan x="0" y="0"> </tspan></text>
    <text id="options" transform="translate(417.565 -297.466)" font-size="10" font-family="Helvetica-Normal"><tspan x="0" y="0">options</tspan></text>
    <path id="Path_2093" data-name="Path 2093" d="M478.2-16.616h70.155V-73.34H478.2Z" fill="#fff"/>
    <path id="Path_2094" data-name="Path 2094" d="M478.268-16.683h70.023V-73.275H478.268Z" fill="none" stroke="#e8e8e8" stroke-width="1"/>
    <text id="Added_to-2" data-name="Added to" transform="translate(492.506 -49.957)" font-size="10" font-family="Helvetica-Normal"><tspan x="0" y="0">Added to</tspan></text>
    <text id="_4" data-name=" " transform="translate(534.294 -49.957)" font-size="12" font-family="Helvetica-Normal"><tspan x="0" y="0"> </tspan></text>
    <g id="Group-19" data-name="Group">
      <text id="CR" transform="translate(501.527 -37.464)" font-size="10" font-family="Helvetica-Normal"><tspan x="0" y="0">CR</tspan></text>
      <text id="M" transform="translate(516.591 -37.464)" font-size="10" font-family="Helvetica-Normal"><tspan x="0" y="0">M</tspan></text>
    </g>
    <path id="Path_2095" data-name="Path 2095" d="M396.823-157.982h70.155v-31.5H396.823Z" fill="#fff"/>
    <path id="Path_2096" data-name="Path 2096" d="M396.955-158.114h69.891v-31.235H396.955Z" fill="none" stroke="#f7ba47" stroke-width="2"/>
    <text id="Product" transform="translate(413.993 -176.084)" font-size="10" font-family="Helvetica-Normal"><tspan x="0" y="0">Product</tspan></text>
    <text id="_5" data-name=" " transform="translate(449.964 -176.084)" font-size="12" font-family="Helvetica-Normal"><tspan x="0" y="0"> </tspan></text>
    <g id="Group-20" data-name="Group">
      <text id="interactio" transform="translate(407.928 -163.591)" font-size="10" font-family="Helvetica-Normal"><tspan x="0" y="0">interactio</tspan></text>
      <text id="n-5" data-name="n" transform="translate(450.207 -163.591)" font-size="10" font-family="Helvetica-Normal"><tspan x="0" y="0">n</tspan></text>
    </g>
    <path id="Path_2097" data-name="Path 2097" d="M399.985-16.616H470.14V-73.34H399.985Z" fill="#fff"/>
    <path id="Path_2098" data-name="Path 2098" d="M400.051-16.683h70.023V-73.275H400.051Z" fill="none" stroke="#e8e8e8" stroke-width="1"/>
    <g id="Group-21" data-name="Group">
      <text id="Possibl" transform="translate(415.444 -61.174)" font-size="10" font-family="Helvetica-Normal"><tspan x="0" y="0">Possibl</tspan></text>
      <text id="e-3" data-name="e" transform="translate(449.103 -61.174)" font-size="10" font-family="Helvetica-Normal"><tspan x="0" y="0">e</tspan></text>
      <text id="combinations" transform="translate(404.409 -48.681)" font-size="10" font-family="Helvetica-Normal"><tspan x="0" y="0">combinations</tspan></text>
      <text id="based_on_the_" data-name="based on the " transform="translate(404.981 -36.188)" font-size="10" font-family="Helvetica-Normal"><tspan x="0" y="0">based on the </tspan></text>
      <text id="model-2" data-name="model" transform="translate(420.973 -23.695)" font-size="10" font-family="Helvetica-Normal"><tspan x="0" y="0">model</tspan></text>
    </g>
    <g id="Group_66" data-name="Group 66" transform="translate(434.241 -376.851)">
      <path id="Path_2099" data-name="Path 2099" d="M0,0V55.927M-4.089,4.377,0,0,4.089,4.377M80.3,0V54.662M76.212,4.377,80.3,0,84.39,4.377m0,45.908L80.3,54.663l-4.089-4.378" fill="none" stroke="#000" stroke-width="2"/>
    </g>
    <path id="Path_2100" data-name="Path 2100" d="M479.25-290.313h69.891v-31.235H479.25Z" fill="none" stroke="#f7ba47" stroke-width="2"/>
    <g id="Group-22" data-name="Group">
      <text id="Shows_th" data-name="Shows th" transform="translate(490.241 -309.96)" font-size="10" font-family="Helvetica-Normal"><tspan x="0" y="0">Shows th</tspan></text>
      <text id="e-4" data-name="e" transform="translate(533.176 -309.96)" font-size="10" font-family="Helvetica-Normal"><tspan x="0" y="0">e</tspan></text>
      <text id="final_choise" data-name="final choise" transform="translate(488.523 -297.467)" font-size="10" font-family="Helvetica-Normal"><tspan x="0" y="0">final choise</tspan></text>
    </g>
    <g id="Group_67" data-name="Group 67" transform="translate(514.195 -288.909)">
      <path id="Path_2101" data-name="Path 2101" d="M0,0V215.14m3.993-4.4L0,215.141l-3.992-4.4" fill="none" stroke="#000" stroke-width="2"/>
    </g>
    <path id="Path_2102" data-name="Path 2102" d="M557.707-290.313H627.6v-31.235H557.707Z" fill="none" stroke="#f7ba47" stroke-width="2"/>
    <g id="Group-23" data-name="Group">
      <text id="Shows_the_" data-name="Shows the " transform="translate(569.028 -309.526)" font-size="10" font-family="Helvetica-Normal"><tspan x="0" y="0">Shows the </tspan></text>
      <text id="form" transform="translate(582.999 -297.033)" font-size="10" font-family="Helvetica-Normal"><tspan x="0" y="0">form</tspan></text>
    </g>
    <path id="Path_2103" data-name="Path 2103" d="M637.684-16.517h70.155V-73.241H637.684Z" fill="#fff"/>
    <path id="Path_2104" data-name="Path 2104" d="M637.75-16.583h70.023V-73.175H637.75Z" fill="none" stroke="#e8e8e8" stroke-width="1"/>
    <g id="Group-24" data-name="Group">
      <text id="_6" data-name=" " transform="translate(703.467 -60.497)" font-size="12" font-family="Helvetica-Normal"><tspan x="0" y="0"> </tspan></text>
      <text id="_7" data-name=" " transform="translate(697.995 -48.005)" font-size="12" font-family="Helvetica-Normal"><tspan x="0" y="0"> </tspan></text>
      <text id="_8" data-name=" " transform="translate(704.091 -35.513)" font-size="12" font-family="Helvetica-Normal"><tspan x="0" y="0"> </tspan></text>
    </g>
    <path id="Path_2105" data-name="Path 2105" d="M715.594-16.616h70.155V-73.34H715.594Z" fill="#fff"/>
    <path id="Path_2106" data-name="Path 2106" d="M715.66-16.683h70.023V-73.275H715.66Z" fill="none" stroke="#e8e8e8" stroke-width="1"/>
    <g id="Group_68" data-name="Group 68" transform="translate(750.672 -378.562)">
      <path id="Path_2107" data-name="Path 2107" d="M0,0V306.282M-3.993,4.405,0,0,3.992,4.405" fill="none" stroke="#000" stroke-width="2"/>
    </g>
    <g id="Group-25" data-name="Group">
      <text id="line_of_visibilit" data-name="line of  visibilit" transform="translate(12.205 -170.617)" font-size="9" font-family="Helvetica"><tspan x="0" y="0" xml:space="preserve">line of  visibilit</tspan></text>
      <text id="y-3" data-name="y" transform="translate(65.691 -170.617)" font-size="9" font-family="Helvetica"><tspan x="0" y="0">y</tspan></text>
    </g>
    <g id="Group_69" data-name="Group 69" clip-path="url(#clip-path)">
      <text id="FR" transform="translate(0 -298.051)" font-size="10" font-family="Helvetica-Bold, Helvetica" font-weight="700"><tspan x="0" y="0">FR</tspan></text>
    </g>
    <g id="Group-26" data-name="Group">
      <text id="ONTST" transform="translate(13.679 -298.051)" font-size="10" font-family="Helvetica-Bold, Helvetica" font-weight="700"><tspan x="0" y="0">ONTST</tspan></text>
      <text id="A-2" data-name="A" transform="translate(48.025 -298.051)" font-size="10" font-family="Helvetica-Bold, Helvetica" font-weight="700"><tspan x="0" y="0">A</tspan></text>
      <text id="GE_2" data-name="GE " transform="translate(55.032 -298.051)" font-size="10" font-family="Helvetica-Bold, Helvetica" font-weight="700"><tspan x="0" y="0">GE </tspan></text>
      <text id="MT-3" data-name="MT" transform="translate(4.955 -285.557)" font-size="10" font-family="Helvetica-Bold, Helvetica" font-weight="700"><tspan x="0" y="0">MT</tspan></text>
      <text id="O_" data-name="O " transform="translate(19.582 -285.557)" font-size="10" font-family="Helvetica-Bold, Helvetica" font-weight="700"><tspan x="0" y="0">O </tspan></text>
      <text id="AC" transform="translate(30.576 -285.557)" font-size="10" font-family="Helvetica-Bold, Helvetica" font-weight="700"><tspan x="0" y="0">AC</tspan></text>
      <text id="TION" transform="translate(45.204 -285.557)" font-size="10" font-family="Helvetica-Bold, Helvetica" font-weight="700"><tspan x="0" y="0">TION</tspan></text>
      <text id="BEFORE" transform="translate(81.705 -432.977)" font-size="10" font-family="Helvetica-Bold, Helvetica" font-weight="700"><tspan x="0" y="0">BEFORE</tspan></text>
      <text id="DURING" transform="translate(410.057 -432.977)" font-size="10" font-family="Helvetica-Bold, Helvetica" font-weight="700"><tspan x="0" y="0">DURING</tspan></text>
      <text id="AFTE" transform="translate(768.081 -429.24)" font-size="10" font-family="Helvetica-Bold, Helvetica" font-weight="700"><tspan x="0" y="0">AFTE</tspan></text>
      <text id="R" transform="translate(795.254 -429.24)" font-size="10" font-family="Helvetica-Bold, Helvetica" font-weight="700"><tspan x="0" y="0">R</tspan></text>
    </g>
    <g id="Group_71" data-name="Group 71" clip-path="url(#clip-path)">
      <g id="Group_70" data-name="Group 70" transform="translate(157.917 -427.862)">
        <path id="Path_2109" data-name="Path 2109" d="M0,0V-15.993M553.658,0V-15.993" fill="none" stroke="#000" stroke-width="0.5"/>
      </g>
    </g>
    <g id="Group_72" data-name="Group 72" transform="translate(671.34 -288.909)">
      <path id="Path_2111" data-name="Path 2111" d="M0,0V213.651m3.995-4.373L0,213.652l-3.995-4.374" fill="none" stroke="#000" stroke-width="2"/>
    </g>
    <g id="Group-27" data-name="Group">
      <text id="confirmation_" data-name="confirmation " transform="translate(644.17 -57.442)" fill="#2b2e34" font-size="10" font-family="ProximaNova-Regular, Proxima Nova"><tspan x="0" y="0">confirmation </tspan></text>
      <text id="is_sent_to" data-name="is sent to" transform="translate(651.61 -45.442)" fill="#2b2e34" font-size="10" font-family="ProximaNova-Regular, Proxima Nova"><tspan x="0" y="0">is sent to</tspan></text>
      <text id="_Production_" data-name=" Production " transform="translate(646.29 -33.442)" fill="#2b2e34" font-size="10" font-family="ProximaNova-Regular, Proxima Nova"><tspan x="0" y="0" xml:space="preserve"> Production </tspan></text>
      <text id="R-2" data-name="R" transform="translate(726.32 -58.142)" fill="#2b2e34" font-size="10" font-family="ProximaNova-Regular, Proxima Nova"><tspan x="0" y="0">R</tspan></text>
      <text id="eminder_is_" data-name="eminder is " transform="translate(732.1 -58.142)" fill="#2b2e34" font-size="10" font-family="ProximaNova-Regular, Proxima Nova"><tspan x="0" y="0">eminder is </tspan></text>
      <text id="sento_to_the_" data-name="sento to the " transform="translate(725.85 -46.142)" fill="#2b2e34" font-size="10" font-family="ProximaNova-Regular, Proxima Nova"><tspan x="0" y="0">sento to the </tspan></text>
      <text id="customer_" data-name="customer " transform="translate(731.64 -34.142)" fill="#2b2e34" font-size="10" font-family="ProximaNova-Regular, Proxima Nova"><tspan x="0" y="0">customer </tspan></text>
      <text id="Cu_profile_" data-name="Cu profile  " transform="translate(196.89 -137.192)" fill="#2b2e34" font-size="10" font-family="ProximaNova-Regular, Proxima Nova"><tspan x="0" y="0" xml:space="preserve">Cu profile  </tspan></text>
      <text id="visualized-2" data-name="visualized" transform="translate(196.58 -125.192)" fill="#2b2e34" font-size="10" font-family="ProximaNova-Regular, Proxima Nova"><tspan x="0" y="0">visualized</tspan></text>
    </g>
  </g>
</svg>
