<svg xmlns="http://www.w3.org/2000/svg" xmlns:xlink="http://www.w3.org/1999/xlink" width="954" height="578.099" viewBox="0 0 954 578.099">
  <defs>
    <clipPath id="clip-path">
      <path id="Path_2381" data-name="Path 2381" d="M0,102.944H954v-578.1H0Z" transform="translate(0 475.155)" fill="none"/>
    </clipPath>
  </defs>
  <g id="Group_409" data-name="Group 409" transform="translate(0 475.155)">
    <g id="Group_387" data-name="Group 387" transform="translate(0 -475.155)" clip-path="url(#clip-path)">
      <g id="Group_384" data-name="Group 384" transform="translate(275.29 219.841)">
        <path id="Path_2378" data-name="Path 2378" d="M0,10.21l56.781,7.98A57.34,57.34,0,0,0,7.98-46.571,60.378,60.378,0,0,0,0-47.128Z" transform="translate(0 47.128)" fill="#ef7560"/>
      </g>
      <g id="Group_385" data-name="Group 385" transform="translate(217.95 219.841)">
        <path id="Path_2379" data-name="Path 2379" d="M10.211,10.21V-47.128a57.339,57.339,0,1,0,0,114.678c29.1,0,52.731-20.541,56.781-49.36Z" transform="translate(47.129 47.128)" fill="#ef7560"/>
      </g>
      <g id="Group_386" data-name="Group 386" transform="translate(231.435 233.326)">
        <path id="Path_2380" data-name="Path 2380" d="M15.619,7.809A43.855,43.855,0,0,1-28.235,51.665,43.855,43.855,0,0,1-72.091,7.809,43.855,43.855,0,0,1-28.235-36.045,43.854,43.854,0,0,1,15.619,7.809" transform="translate(72.091 36.045)" fill="#fff"/>
      </g>
    </g>
    <g id="Group" transform="translate(28.433 -246.211)">
      <text id="W" transform="translate(11.322 20)" fill="#4f5959" font-size="21" font-family="Rockwell"><tspan x="0" y="0">W</tspan></text>
      <text id="ould_y" data-name="ould y" transform="translate(31.255 20)" fill="#4f5959" font-size="21" font-family="Rockwell"><tspan x="0" y="0">ould y</tspan></text>
      <text id="ou_lik" data-name="ou lik" transform="translate(92.934 20)" fill="#4f5959" font-size="21" font-family="Rockwell"><tspan x="0" y="0">ou lik</tspan></text>
      <text id="e_" data-name="e " transform="translate(147.981 20)" fill="#4f5959" font-size="21" font-family="Rockwell"><tspan x="0" y="0">e </tspan></text>
      <text id="to_incr" data-name="to incr" transform="translate(0 49.192)" fill="#4f5959" font-size="21" font-family="Rockwell"><tspan x="0" y="0">to incr</tspan></text>
      <text id="ease_y" data-name="ease y" transform="translate(63.036 49.192)" fill="#4f5959" font-size="21" font-family="Rockwell"><tspan x="0" y="0">ease y</tspan></text>
      <text id="our" transform="translate(126.513 49.192)" fill="#4f5959" font-size="21" font-family="Rockwell"><tspan x="0" y="0">our</tspan></text>
      <text id="netw" transform="translate(35.981 78.385)" fill="#4f5959" font-size="21" font-family="Rockwell"><tspan x="0" y="0">netw</tspan></text>
      <text id="or" transform="translate(83.813 78.385)" fill="#4f5959" font-size="21" font-family="Rockwell"><tspan x="0" y="0">or</tspan></text>
      <text id="king_" data-name="king?" transform="translate(105.06 78.385)" fill="#4f5959" font-size="21" font-family="Rockwell"><tspan x="0" y="0">king?</tspan></text>
    </g>
    <text id="_37_" data-name="37%" transform="translate(702.713 -424.693)" fill="#ef7560" font-size="48" font-family="Rockwell"><tspan x="0" y="0">37%</tspan></text>
    <text id="not_enough_time" data-name="not enough time" transform="translate(809.021 -264.241)" fill="#ef7560" font-size="10" font-family="Rockwell"><tspan x="0" y="0">not enough time</tspan></text>
    <g id="Group_388" data-name="Group 388" transform="translate(921.711 -417.207)">
      <path id="Path_2382" data-name="Path 2382" d="M.217,0H-1" transform="translate(1)" fill="none" stroke="#e56b6b" stroke-width="1"/>
    </g>
    <g id="Group_389" data-name="Group 389" transform="translate(702.713 -417.207)">
      <path id="Path_2383" data-name="Path 2383" d="M38.564,0H-178" transform="translate(178)" fill="none" stroke="#e56b6b" stroke-width="1" stroke-dasharray="2 2"/>
    </g>
    <g id="Group_390" data-name="Group 390" transform="translate(701.497 -437.647)">
      <path id="Path_2384" data-name="Path 2384" d="M.217,0H-1" transform="translate(1)" fill="none" stroke="#e56b6b" stroke-width="1"/>
    </g>
    <text id="_37_2" data-name="37%" transform="translate(706.363 -263.408)" fill="#ef7560" font-size="48" font-family="Rockwell"><tspan x="0" y="0">37%</tspan></text>
    <g id="Group-2" data-name="Group" transform="translate(804.893 -133.42)">
      <text id="might_not_be_open_to_" data-name="might not be open to " transform="translate(0 9)" fill="#ef7560" font-size="10" font-family="Rockwell"><tspan x="0" y="0">might not be open to </tspan></text>
      <text id="appr" transform="translate(0 23.14)" fill="#ef7560" font-size="11" font-family="Rockwell"><tspan x="0" y="0">appr</tspan></text>
      <text id="oach" transform="translate(23.627 23.14)" fill="#ef7560" font-size="11" font-family="Rockwell"><tspan x="0" y="0">oach</tspan></text>
    </g>
    <g id="Group_391" data-name="Group 391" transform="translate(706.363 -255.923)">
      <path id="Path_2385" data-name="Path 2385" d="M38.564,0H-178" transform="translate(178)" fill="none" stroke="#e56b6b" stroke-width="1" stroke-dasharray="2 2"/>
    </g>
    <text id="x_25" data-name="x 25" transform="translate(387.308 -179.233)" fill="#ef7560" font-size="21" font-family="Lato-Light, Lato" font-weight="300"><tspan x="0" y="0">x 25</tspan></text>
    <text id="_20_" data-name="20%" transform="translate(702.713 -109.754)" fill="#ef7560" font-size="48" font-family="Rockwell"><tspan x="0" y="0">20%</tspan></text>
    <g id="Group-3" data-name="Group" transform="translate(810.996 -451.333)">
      <text id="I_don_" data-name="I don’" transform="translate(0 10)" fill="#ef7560" font-size="11" font-family="Rockwell"><tspan x="0" y="0">I don’</tspan></text>
      <text id="t_kno" data-name="t kno" transform="translate(28.321 9)" fill="#ef7560" font-size="10" font-family="Rockwell"><tspan x="0" y="0">t kno</tspan></text>
      <text id="w_who_" data-name="w who " transform="translate(52.702 10)" fill="#ef7560" font-size="11" font-family="Rockwell"><tspan x="0" y="0">w who </tspan></text>
      <text id="might_be_inter" data-name="might be inter" transform="translate(0 22.14)" fill="#ef7560" font-size="10" font-family="Rockwell"><tspan x="0" y="0">might be inter</tspan></text>
      <text id="ested_in" data-name="ested in" transform="translate(70.998 23.14)" fill="#ef7560" font-size="11" font-family="Rockwell"><tspan x="0" y="0">ested in</tspan></text>
    </g>
    <g id="Group_392" data-name="Group 392" transform="translate(702.713 -102.269)">
      <path id="Path_2386" data-name="Path 2386" d="M38.564,0H-178" transform="translate(178)" fill="none" stroke="#e56b6b" stroke-width="1" stroke-dasharray="2 2"/>
    </g>
    <text id="_13_" data-name="13%" transform="translate(702.713 37.558)" fill="#ef7560" font-size="48" font-family="Rockwell"><tspan x="0" y="0">13%</tspan></text>
    <g id="Group-4" data-name="Group" transform="translate(804.893 1.708)">
      <text id="space_design_aff" data-name="space design aff" transform="translate(0 9)" fill="#ef7560" font-size="10" font-family="Rockwell"><tspan x="0" y="0">space design aff</tspan></text>
      <text id="ects_" data-name="ects  " transform="translate(82.167 9)" fill="#ef7560" font-size="10" font-family="Rockwell"><tspan x="0" y="0" xml:space="preserve">ects  </tspan></text>
      <text id="negativ" transform="translate(0 22.14)" fill="#ef7560" font-size="10" font-family="Rockwell"><tspan x="0" y="0">negativ</tspan></text>
      <text id="ely_people_" data-name="ely people " transform="translate(36.988 23.14)" fill="#ef7560" font-size="11" font-family="Rockwell"><tspan x="0" y="0">ely people </tspan></text>
      <text id="findabilty" transform="translate(0 36.28)" fill="#ef7560" font-size="11" font-family="Rockwell"><tspan x="0" y="0">findabilty</tspan></text>
    </g>
    <g id="Group_393" data-name="Group 393" transform="translate(702.713 45.043)">
      <path id="Path_2387" data-name="Path 2387" d="M38.564,0H-178" transform="translate(178)" fill="none" stroke="#e56b6b" stroke-width="1" stroke-dasharray="2 2"/>
    </g>
    <text id="_100_" data-name="100%" transform="translate(361.618 -209.623)" fill="#ef7560" font-size="48" font-family="Rockwell"><tspan x="0" y="0">100%</tspan></text>
    <g id="Group-5" data-name="Group" transform="translate(387.308 -176.613)">
      <text id="Y" transform="translate(0 10)" fill="#ef7560" font-size="11" font-family="Rockwell"><tspan x="0" y="0">Y</tspan></text>
      <text id="es_" data-name="es," transform="translate(5.812 9)" fill="#ef7560" font-size="10" font-family="Rockwell"><tspan x="0" y="0">es,</tspan></text>
      <text id="_but" data-name=" but" transform="translate(19.424 10)" fill="#ef7560" font-size="11" font-family="Rockwell"><tspan x="0" y="0" xml:space="preserve"> but</tspan></text>
    </g>
    <g id="Group_394" data-name="Group 394" transform="translate(467.914 -171.606)">
      <path id="Path_2388" data-name="Path 2388" d="M.217,0H-1" transform="translate(1)" fill="none" stroke="#e56b6b" stroke-width="1"/>
    </g>
    <g id="Group_408" data-name="Group 408" transform="translate(0 -475.155)" clip-path="url(#clip-path)">
      <g id="Group_395" data-name="Group 395" transform="translate(613.295 0.001)">
        <path id="Path_2389" data-name="Path 2389" d="M0,10.21l56.781,7.98A57.34,57.34,0,0,0,7.98-46.571,60.378,60.378,0,0,0,0-47.128Z" transform="translate(0 47.128)" fill="#ef7560"/>
      </g>
      <g id="Group_396" data-name="Group 396" transform="translate(555.956 0.001)">
        <path id="Path_2390" data-name="Path 2390" d="M10.21,10.21V-47.128a57.339,57.339,0,0,0,0,114.678c29.1,0,52.731-20.541,56.781-49.36Z" transform="translate(47.128 47.128)" fill="#4f5959"/>
      </g>
      <g id="Group_397" data-name="Group 397" transform="translate(569.44 13.485)">
        <path id="Path_2391" data-name="Path 2391" d="M15.619,7.809A43.855,43.855,0,0,1-28.237,51.665,43.855,43.855,0,0,1-72.091,7.809,43.854,43.854,0,0,1-28.237-36.045,43.855,43.855,0,0,1,15.619,7.809" transform="translate(72.091 36.045)" fill="#fff"/>
      </g>
      <g id="Group_398" data-name="Group 398" transform="translate(613.733 161.927)">
        <path id="Path_2392" data-name="Path 2392" d="M0,10.038,56.061,4.146A56.539,56.539,0,0,0,0-46.331Z" transform="translate(0 46.331)" fill="#ef7560"/>
      </g>
      <g id="Group_399" data-name="Group 399" transform="translate(557.364 161.927)">
        <path id="Path_2393" data-name="Path 2393" d="M10.038,10.038V-46.331A56.369,56.369,0,1,0,66.407,10.038,46.963,46.963,0,0,0,66.1,4.146Z" transform="translate(46.331 46.331)" fill="#4f5959"/>
      </g>
      <g id="Group_400" data-name="Group 400" transform="translate(569.878 174.44)">
        <path id="Path_2394" data-name="Path 2394" d="M15.619,7.81A43.856,43.856,0,0,1-28.237,51.665,43.855,43.855,0,0,1-72.091,7.81,43.855,43.855,0,0,1-28.237-36.046,43.856,43.856,0,0,1,15.619,7.81" transform="translate(72.091 36.046)" fill="#fff"/>
      </g>
      <g id="Group_401" data-name="Group 401" transform="translate(613.733 317.342)">
        <path id="Path_2395" data-name="Path 2395" d="M0,10,48.63-18.076C38.3-35.964,20.654-46.153,0-46.153Z" transform="translate(0 46.153)" fill="#ef7560"/>
      </g>
      <g id="Group_402" data-name="Group 402" transform="translate(557.58 317.342)">
        <path id="Path_2396" data-name="Path 2396" d="M10,10V-46.153A56.152,56.152,0,1,0,66.151,10a53.68,53.68,0,0,0-7.523-28.076Z" transform="translate(46.153 46.153)" fill="#4f5959"/>
      </g>
      <g id="Group_403" data-name="Group 403" transform="translate(569.878 329.64)">
        <path id="Path_2397" data-name="Path 2397" d="M15.619,7.809A43.855,43.855,0,0,1-28.237,51.665,43.855,43.855,0,0,1-72.091,7.809,43.854,43.854,0,0,1-28.237-36.045,43.855,43.855,0,0,1,15.619,7.809" transform="translate(72.091 36.045)" fill="#fff"/>
      </g>
      <g id="Group_404" data-name="Group 404" transform="translate(615.482 462.296)">
        <path id="Path_2398" data-name="Path 2398" d="M0,10.311,31.536-38.25A55.927,55.927,0,0,0,0-47.591Z" transform="translate(0 47.591)" fill="#ef7560"/>
      </g>
      <g id="Group_405" data-name="Group 405" transform="translate(557.58 462.296)">
        <path id="Path_2399" data-name="Path 2399" d="M10.311,10.311v-57.9a57.9,57.9,0,1,0,57.9,57.9c0-20.338-9.31-37.484-26.366-48.56Z" transform="translate(47.591 47.591)" fill="#4f5959"/>
      </g>
      <g id="Group_406" data-name="Group 406" transform="translate(571.627 476.342)">
        <path id="Path_2400" data-name="Path 2400" d="M15.619,7.81A43.856,43.856,0,0,1-28.237,51.665,43.855,43.855,0,0,1-72.091,7.81,43.855,43.855,0,0,1-28.237-36.046,43.856,43.856,0,0,1,15.619,7.81" transform="translate(72.091 36.046)" fill="#fff"/>
      </g>
      <g id="Group_407" data-name="Group 407" transform="translate(371.003 274.665)">
        <path id="Path_2401" data-name="Path 2401" d="M1.835,1.652C1.647,1.607.7,1.4.452,1.347l-1.835,5.8-.672-4.315.691-.32.281-.477L-1.895,1.3-.887.518a2.774,2.774,0,0,1-.336-.651c.15-.116.316-.249.5-.406.69-.547.557-.958.736-1.509C.257-1.574.9-2.922.9-3.512S.543-3.738.543-3.738.523-4.207.5-4.816a2.728,2.728,0,0,0-2.86-2.81.054.054,0,0,0-.024,0,.046.046,0,0,0-.021,0h0c-.006,0-.012,0-.015,0a.075.075,0,0,0-.026,0A2.732,2.732,0,0,0-5.32-4.816c-.017.608-.044,1.078-.044,1.078s-.352-.364-.352.225.64,1.938.881,1.465c.179.551.044.961.732,1.509.191.157.356.291.509.406a3.172,3.172,0,0,1-.332.651l1,.785-.812.729.28.477.7.32-.672,4.315-1.84-5.8c-.241.051-1.19.26-1.381.305-1.93.52-1.816,1.219-1.816,2.181V3.9c.013,1.329.165,3.292.364,6.939v.013c.013.258.029,1.756.041,2.017.1.86.416,2.085,1.456,2.085,0,2.9.282,11.148.378,13.738H-2.58l.131-12.805h.175L-2.159,28.7H1.429c.094-2.59.378-10.838.378-13.738.962,0,1.305-1.055,1.43-1.892.218-4.045.4-7.711.412-9.163V3.834c0-.962.112-1.662-1.814-2.181" transform="translate(8.472 7.626)" fill="#ef7560"/>
      </g>
    </g>
  </g>
</svg>
