<svg id="Livello_1" data-name="Livello 1" xmlns="http://www.w3.org/2000/svg" viewBox="0 0 462.06 431.05"><defs><style>.cls-1{fill:#c42f31;}</style></defs><title>logo</title><path class="cls-1" d="M187.32,353.27v77.78h47.9V353.3a137.3,137.3,0,0,1-47.9,0Z"/><path class="cls-1" d="M296.06,414l41.69-23.59L300,323.65a139.87,139.87,0,0,1-41.69,23.61Z"/><path class="cls-1" d="M349.05,239.48h73.49l39.52-21.25-39.52-26.65H349a137.62,137.62,0,0,1,0,47.9Z"/><path class="cls-1" d="M406.4,128.4,382.08,87.12,317.79,125a139.71,139.71,0,0,1,24.35,41.25Z"/><path class="cls-1" d="M300,107.43l37.78-66.76L296.06,17.08,258.28,83.83A135.79,135.79,0,0,1,300,107.43Z"/><path class="cls-1" d="M235.22,77.77V0h-47.9V77.78a136.66,136.66,0,0,1,47.9,0Z"/><path class="cls-1" d="M164.26,83.82,126.48,17.08,84.79,40.67l37.8,66.79a135.78,135.78,0,0,1,41.67-23.64Z"/><path class="cls-1" d="M104.75,125,40.46,87.12,16.15,128.4l64.26,37.85A135.52,135.52,0,0,1,104.75,125Z"/><path class="cls-1" d="M73.53,191.58H0v47.9H73.53a136.34,136.34,0,0,1,0-47.9Z"/><path class="cls-1" d="M80.41,264.8,16.15,302.65l24.31,41.28,64.29-37.87A141,141,0,0,1,91,287,138.83,138.83,0,0,1,80.41,264.8Z"/><path class="cls-1" d="M122.59,323.59l-37.8,66.79L126.48,414l37.78-66.74a135.86,135.86,0,0,1-41.67-23.64Z"/><path class="cls-1" d="M235.22,353.28v77.77h-47.9V353.27a136.66,136.66,0,0,0,47.9,0Z"/><path class="cls-1" d="M342.13,264.8l64.26,37.85-24.31,41.28-64.29-37.87a135.16,135.16,0,0,0,24.34-41.26Z"/></svg>