<svg xmlns="http://www.w3.org/2000/svg" xmlns:xlink="http://www.w3.org/1999/xlink" width="1220.178" height="520.169" viewBox="0 0 1220.178 520.169">
  <defs>
    <clipPath id="clip-path">
      <path id="Path_2025" data-name="Path 2025" d="M0,118.358H1220.178V-401.811H0Z" transform="translate(0 401.811)" fill="none"/>
    </clipPath>
    <clipPath id="clip-path-3">
      <rect id="Rectangle_65" data-name="Rectangle 65" width="1230.222" height="116.612" fill="none"/>
    </clipPath>
    <clipPath id="clip-path-8">
      <rect id="Rectangle_66" data-name="Rectangle 66" width="47.095" height="32.915" fill="none"/>
    </clipPath>
  </defs>
  <g id="Group_30" data-name="Group 30" transform="translate(0 401.811)">
    <g id="Group" transform="translate(11.651 -269.882)">
      <text id="digital_solutions" data-name="digital solutions" transform="translate(1076.883 14)" fill="#ff1644" font-size="15" font-family="Helvetica"><tspan x="0" y="0">digital solutions</tspan></text>
      <text id="analog_solutions" data-name="analog solutions" transform="translate(0 14)" fill="#ff1644" font-size="15" font-family="Helvetica"><tspan x="0" y="0">analog solutions</tspan></text>
    </g>
    <g id="Group-2" data-name="Group" transform="translate(13.788 -227.189)">
      <text id="Pr" transform="translate(0 16)" fill="#455a63" font-size="17" font-family="Helvetica-Bold, Helvetica" font-weight="700"><tspan x="0" y="0">Pr</tspan></text>
      <text id="oduct_Design" data-name="oduct Design" transform="translate(18.776 16)" fill="#455a63" font-size="17" font-family="Helvetica-Bold, Helvetica" font-weight="700"><tspan x="0" y="0">oduct Design</tspan></text>
    </g>
    <g id="Group_3" data-name="Group 3" transform="translate(0 -401.811)" clip-path="url(#clip-path)">
      <g id="Group_2" data-name="Group 2" transform="translate(64.834 320.77)">
        <path id="Path_2024" data-name="Path 2024" d="M0,0" fill="#fac339"/>
      </g>
    </g>
    <g id="Group-3" data-name="Group" transform="translate(13.788 -185.558)">
      <text id="_" data-name="•" transform="translate(0 14)" fill="#455a63" font-size="15" font-family="Helvetica"><tspan x="0" y="0">•</tspan></text>
      <text id="_2" data-name=" " transform="translate(5.437 11)" fill="#455a63" font-size="12" font-family="Helvetica"><tspan x="0" y="0"> </tspan></text>
      <text id="User_research" data-name="User research" transform="translate(23.302 14)" fill="#455a63" font-size="15" font-family="Helvetica"><tspan x="0" y="0">User research</tspan></text>
      <text id="_3" data-name="•" transform="translate(0 37.302)" fill="#455a63" font-size="15" font-family="Helvetica"><tspan x="0" y="0">•</tspan></text>
      <text id="_4" data-name=" " transform="translate(5.437 34.302)" fill="#455a63" font-size="12" font-family="Helvetica"><tspan x="0" y="0"> </tspan></text>
      <text id="T" transform="translate(23.302 37.302)" fill="#455a63" font-size="15" font-family="Helvetica"><tspan x="0" y="0">T</tspan></text>
      <text id="rend_research" data-name="rend research" transform="translate(30.93 37.302)" fill="#455a63" font-size="15" font-family="Helvetica"><tspan x="0" y="0">rend research</tspan></text>
      <text id="_5" data-name="•" transform="translate(0 60.604)" fill="#455a63" font-size="15" font-family="Helvetica"><tspan x="0" y="0">•</tspan></text>
      <text id="_6" data-name=" " transform="translate(5.437 57.604)" fill="#455a63" font-size="12" font-family="Helvetica"><tspan x="0" y="0"> </tspan></text>
      <text id="Humanity_studies" data-name="Humanity studies" transform="translate(23.302 60.604)" fill="#455a63" font-size="15" font-family="Helvetica"><tspan x="0" y="0">Humanity studies</tspan></text>
      <text id="_7" data-name="•" transform="translate(0 83.906)" fill="#455a63" font-size="15" font-family="Helvetica"><tspan x="0" y="0">•</tspan></text>
      <text id="_8" data-name=" " transform="translate(5.437 80.906)" fill="#455a63" font-size="12" font-family="Helvetica"><tspan x="0" y="0"> </tspan></text>
      <text id="Competitiv" transform="translate(23.302 83.906)" fill="#455a63" font-size="15" font-family="Helvetica"><tspan x="0" y="0">Competitiv</tspan></text>
      <text id="e_analysis_" data-name="e analysis " transform="translate(96.283 83.906)" fill="#455a63" font-size="15" font-family="Helvetica"><tspan x="0" y="0">e analysis </tspan></text>
      <text id="_9" data-name="•" transform="translate(0 107.209)" fill="#ff1644" font-size="15" font-family="Helvetica"><tspan x="0" y="0">•</tspan></text>
      <text id="_10" data-name=" " transform="translate(5.437 104.209)" fill="#ff1644" font-size="12" font-family="Helvetica"><tspan x="0" y="0"> </tspan></text>
      <text id="T-2" data-name="T" transform="translate(23.302 107.209)" fill="#ff1644" font-size="15" font-family="Helvetica"><tspan x="0" y="0">T</tspan></text>
      <text id="echnolgies" transform="translate(30.93 107.209)" fill="#ff1644" font-size="15" font-family="Helvetica"><tspan x="0" y="0">echnolgies</tspan></text>
      <text id="_11" data-name="•" transform="translate(0 130.511)" fill="#ff1644" font-size="15" font-family="Helvetica"><tspan x="0" y="0">•</tspan></text>
      <text id="_12" data-name=" " transform="translate(5.437 127.511)" fill="#ff1644" font-size="12" font-family="Helvetica"><tspan x="0" y="0"> </tspan></text>
      <text id="Prototyping_tools" data-name="Prototyping tools" transform="translate(23.302 130.511)" fill="#ff1644" font-size="15" font-family="Helvetica"><tspan x="0" y="0">Prototyping tools</tspan></text>
      <text id="_13" data-name="•" transform="translate(0 153.813)" fill="#455a63" font-size="15" font-family="Helvetica"><tspan x="0" y="0">•</tspan></text>
      <text id="_14" data-name=" " transform="translate(5.437 150.813)" fill="#455a63" font-size="12" font-family="Helvetica"><tspan x="0" y="0"> </tspan></text>
      <text id="Prototype" transform="translate(23.302 153.813)" fill="#455a63" font-size="15" font-family="Helvetica"><tspan x="0" y="0">Prototype</tspan></text>
    </g>
    <g id="Group_11" data-name="Group 11" transform="translate(0 -401.811)" clip-path="url(#clip-path)">
      <g id="Group_4" data-name="Group 4" transform="translate(257.183 214.509)">
        <path id="Path_2026" data-name="Path 2026" d="M0,0" fill="#fac339"/>
      </g>
      <g id="Group_5" data-name="Group 5" transform="translate(864.977 214.509)">
        <path id="Path_2027" data-name="Path 2027" d="M0,0" fill="#fac339"/>
      </g>
      <g id="Group_6" data-name="Group 6" transform="translate(561.08 214.509)">
        <path id="Path_2028" data-name="Path 2028" d="M0,0" fill="#fac339"/>
      </g>
      <g id="Group_10" data-name="Group 10" transform="translate(-10.751 7.457)" opacity="0.2">
        <g id="Group_9" data-name="Group 9">
          <g id="Group_8" data-name="Group 8" clip-path="url(#clip-path-3)">
            <g id="Group_7" data-name="Group 7" transform="translate(11.965 9.061)">
              <path id="Path_2029" data-name="Path 2029" d="M0,22.409s447.795,3.2,574.531-15.539C662.208-6.093,736.692-23.355,796.046-35.083c0,0,223.971-50.629,410.247-39.356V30.179H0Z" transform="translate(0 76.077)" fill="#ff1644"/>
            </g>
          </g>
        </g>
      </g>
    </g>
    <text id="Strategic_Design" data-name="Strategic Design" transform="translate(329.721 -210.978)" fill="#455a63" font-size="17" font-family="Helvetica-Bold, Helvetica" font-weight="700"><tspan x="0" y="0">Strategic Design</tspan></text>
    <g id="Group-4" data-name="Group" transform="translate(330.038 -185.347)">
      <text id="_15" data-name="•" transform="translate(0 14)" fill="#455a63" font-size="15" font-family="Helvetica"><tspan x="0" y="0">•</tspan></text>
      <text id="_16" data-name=" " transform="translate(5.437 11)" fill="#455a63" font-size="12" font-family="Helvetica"><tspan x="0" y="0"> </tspan></text>
      <text id="User_research-2" data-name="User research" transform="translate(23.302 14)" fill="#455a63" font-size="15" font-family="Helvetica"><tspan x="0" y="0">User research</tspan></text>
      <text id="_17" data-name="•" transform="translate(0 37.302)" fill="#455a63" font-size="15" font-family="Helvetica"><tspan x="0" y="0">•</tspan></text>
      <text id="_18" data-name=" " transform="translate(5.437 34.302)" fill="#455a63" font-size="12" font-family="Helvetica"><tspan x="0" y="0"> </tspan></text>
      <text id="T-3" data-name="T" transform="translate(23.302 37.302)" fill="#455a63" font-size="15" font-family="Helvetica"><tspan x="0" y="0">T</tspan></text>
      <text id="rend_research-2" data-name="rend research" transform="translate(30.93 37.302)" fill="#455a63" font-size="15" font-family="Helvetica"><tspan x="0" y="0">rend research</tspan></text>
      <text id="_19" data-name="•" transform="translate(0 60.604)" fill="#455a63" font-size="15" font-family="Helvetica"><tspan x="0" y="0">•</tspan></text>
      <text id="_20" data-name=" " transform="translate(5.437 57.604)" fill="#455a63" font-size="12" font-family="Helvetica"><tspan x="0" y="0"> </tspan></text>
      <text id="Humanities_studies" data-name="Humanities studies" transform="translate(23.302 60.604)" fill="#455a63" font-size="15" font-family="Helvetica"><tspan x="0" y="0">Humanities studies</tspan></text>
      <text id="_21" data-name="•" transform="translate(0 83.906)" fill="#455a63" font-size="15" font-family="Helvetica"><tspan x="0" y="0">•</tspan></text>
      <text id="_22" data-name=" " transform="translate(5.437 80.906)" fill="#455a63" font-size="12" font-family="Helvetica"><tspan x="0" y="0"> </tspan></text>
      <text id="Competitiv-2" data-name="Competitiv" transform="translate(23.302 83.906)" fill="#455a63" font-size="15" font-family="Helvetica"><tspan x="0" y="0">Competitiv</tspan></text>
      <text id="e_analysis_2" data-name="e analysis " transform="translate(96.283 83.906)" fill="#455a63" font-size="15" font-family="Helvetica"><tspan x="0" y="0">e analysis </tspan></text>
      <text id="_23" data-name="•" transform="translate(0 107.209)" fill="#ff1644" font-size="15" font-family="Helvetica"><tspan x="0" y="0">•</tspan></text>
      <text id="_24" data-name=" " transform="translate(5.437 104.209)" fill="#ff1644" font-size="12" font-family="Helvetica"><tspan x="0" y="0"> </tspan></text>
      <text id="T-4" data-name="T" transform="translate(23.302 107.209)" fill="#ff1644" font-size="15" font-family="Helvetica"><tspan x="0" y="0">T</tspan></text>
      <text id="echnolgies-2" data-name="echnolgies" transform="translate(30.93 107.209)" fill="#ff1644" font-size="15" font-family="Helvetica"><tspan x="0" y="0">echnolgies</tspan></text>
      <text id="_25" data-name="•" transform="translate(0 130.511)" fill="#ff1644" font-size="15" font-family="Helvetica"><tspan x="0" y="0">•</tspan></text>
      <text id="_26" data-name=" " transform="translate(5.437 127.511)" fill="#ff1644" font-size="12" font-family="Helvetica"><tspan x="0" y="0"> </tspan></text>
      <text id="Prototyping_tools-2" data-name="Prototyping tools" transform="translate(23.302 130.511)" fill="#ff1644" font-size="15" font-family="Helvetica"><tspan x="0" y="0">Prototyping tools</tspan></text>
      <text id="_27" data-name="•" transform="translate(0 153.813)" fill="#455a63" font-size="15" font-family="Helvetica"><tspan x="0" y="0">•</tspan></text>
      <text id="_28" data-name=" " transform="translate(5.437 150.813)" fill="#455a63" font-size="12" font-family="Helvetica"><tspan x="0" y="0"> </tspan></text>
      <text id="Prototype-2" data-name="Prototype" transform="translate(23.302 153.813)" fill="#455a63" font-size="15" font-family="Helvetica"><tspan x="0" y="0">Prototype</tspan></text>
      <text id="_29" data-name="•" transform="translate(0 177.115)" fill="#455a63" font-size="15" font-family="Helvetica"><tspan x="0" y="0">•</tspan></text>
      <text id="_30" data-name=" " transform="translate(5.437 174.115)" fill="#455a63" font-size="12" font-family="Helvetica"><tspan x="0" y="0"> </tspan></text>
      <text id="Project_management" data-name="Project management" transform="translate(23.302 177.115)" fill="#455a63" font-size="15" font-family="Helvetica"><tspan x="0" y="0">Project management</tspan></text>
    </g>
    <g id="Group_13" data-name="Group 13" transform="translate(0 -401.811)" clip-path="url(#clip-path)">
      <g id="Group_12" data-name="Group 12" transform="translate(308.75)">
        <path id="Path_2031" data-name="Path 2031" d="M0,0V435.392" fill="none" stroke="#2b2e34" stroke-width="0.25"/>
      </g>
    </g>
    <text id="Service_Design" data-name="Service Design" transform="translate(633.316 -210.597)" fill="#455a63" font-size="17" font-family="Helvetica-Bold, Helvetica" font-weight="700"><tspan x="0" y="0">Service Design</tspan></text>
    <g id="Group-5" data-name="Group" transform="translate(634.135 -184.966)">
      <text id="_31" data-name="•" transform="translate(0 14)" fill="#455a63" font-size="15" font-family="Helvetica"><tspan x="0" y="0">•</tspan></text>
      <text id="_32" data-name=" " transform="translate(5.437 11)" fill="#455a63" font-size="12" font-family="Helvetica"><tspan x="0" y="0"> </tspan></text>
      <text id="User_research-3" data-name="User research" transform="translate(23.302 14)" fill="#455a63" font-size="15" font-family="Helvetica"><tspan x="0" y="0">User research</tspan></text>
      <text id="_33" data-name="•" transform="translate(0 37.302)" fill="#455a63" font-size="15" font-family="Helvetica"><tspan x="0" y="0">•</tspan></text>
      <text id="_34" data-name=" " transform="translate(5.437 34.302)" fill="#455a63" font-size="12" font-family="Helvetica"><tspan x="0" y="0"> </tspan></text>
      <text id="T-5" data-name="T" transform="translate(23.302 37.302)" fill="#455a63" font-size="15" font-family="Helvetica"><tspan x="0" y="0">T</tspan></text>
      <text id="rend_research-3" data-name="rend research" transform="translate(30.93 37.302)" fill="#455a63" font-size="15" font-family="Helvetica"><tspan x="0" y="0">rend research</tspan></text>
      <text id="_35" data-name="•" transform="translate(0 60.604)" fill="#455a63" font-size="15" font-family="Helvetica"><tspan x="0" y="0">•</tspan></text>
      <text id="_36" data-name=" " transform="translate(5.437 57.604)" fill="#455a63" font-size="12" font-family="Helvetica"><tspan x="0" y="0"> </tspan></text>
      <text id="Humanities_studies-2" data-name="Humanities studies" transform="translate(23.302 60.604)" fill="#455a63" font-size="15" font-family="Helvetica"><tspan x="0" y="0">Humanities studies</tspan></text>
      <text id="_37" data-name="•" transform="translate(0 83.906)" fill="#455a63" font-size="15" font-family="Helvetica"><tspan x="0" y="0">•</tspan></text>
      <text id="_38" data-name=" " transform="translate(5.437 80.906)" fill="#455a63" font-size="12" font-family="Helvetica"><tspan x="0" y="0"> </tspan></text>
      <text id="Competitiv-3" data-name="Competitiv" transform="translate(23.302 83.906)" fill="#455a63" font-size="15" font-family="Helvetica"><tspan x="0" y="0">Competitiv</tspan></text>
      <text id="e_analysis_3" data-name="e analysis " transform="translate(96.283 83.906)" fill="#455a63" font-size="15" font-family="Helvetica"><tspan x="0" y="0">e analysis </tspan></text>
      <text id="_39" data-name="•" transform="translate(0 107.209)" fill="#ff1644" font-size="15" font-family="Helvetica"><tspan x="0" y="0">•</tspan></text>
      <text id="_40" data-name=" " transform="translate(5.437 104.209)" fill="#ff1644" font-size="12" font-family="Helvetica"><tspan x="0" y="0"> </tspan></text>
      <text id="T-6" data-name="T" transform="translate(23.302 107.209)" fill="#ff1644" font-size="15" font-family="Helvetica"><tspan x="0" y="0">T</tspan></text>
      <text id="echnolgies-3" data-name="echnolgies" transform="translate(30.93 107.209)" fill="#ff1644" font-size="15" font-family="Helvetica"><tspan x="0" y="0">echnolgies</tspan></text>
      <text id="_41" data-name="•" transform="translate(0 130.511)" fill="#ff1644" font-size="15" font-family="Helvetica"><tspan x="0" y="0">•</tspan></text>
      <text id="_42" data-name=" " transform="translate(5.437 127.511)" fill="#ff1644" font-size="12" font-family="Helvetica"><tspan x="0" y="0"> </tspan></text>
      <text id="Prototyping_tools-3" data-name="Prototyping tools" transform="translate(23.302 130.511)" fill="#ff1644" font-size="15" font-family="Helvetica"><tspan x="0" y="0">Prototyping tools</tspan></text>
      <text id="_43" data-name="•" transform="translate(0 153.813)" fill="#fff" font-size="15" font-family="Helvetica"><tspan x="0" y="0">•</tspan></text>
      <text id="_44" data-name=" " transform="translate(5.437 150.813)" fill="#fff" font-size="12" font-family="Helvetica"><tspan x="0" y="0"> </tspan></text>
    </g>
    <g id="Group_16" data-name="Group 16" transform="translate(0 -401.811)" clip-path="url(#clip-path)">
      <g id="Group_14" data-name="Group 14" transform="translate(612.241)">
        <path id="Path_2033" data-name="Path 2033" d="M0,0V443.294" fill="none" stroke="#2b2e34" stroke-width="0.25"/>
      </g>
      <g id="Group_15" data-name="Group 15" transform="translate(1068.663 307.898)">
        <path id="Path_2034" data-name="Path 2034" d="M0,0" fill="#fac339"/>
      </g>
    </g>
    <text id="UX_Design" data-name="UX Design" transform="translate(932.318 -211.189)" fill="#455a63" font-size="17" font-family="Helvetica-Bold, Helvetica" font-weight="700"><tspan x="0" y="0">UX Design</tspan></text>
    <g id="Group-6" data-name="Group" transform="translate(938.037 -184.052)">
      <text id="_45" data-name="•" transform="translate(0 14)" fill="#455a63" font-size="15" font-family="Helvetica"><tspan x="0" y="0">•</tspan></text>
      <text id="_46" data-name=" " transform="translate(5.437 11)" fill="#455a63" font-size="12" font-family="Helvetica"><tspan x="0" y="0"> </tspan></text>
      <text id="User_research-4" data-name="User research" transform="translate(23.302 14)" fill="#455a63" font-size="15" font-family="Helvetica"><tspan x="0" y="0">User research</tspan></text>
      <text id="_47" data-name="•" transform="translate(0 37.302)" fill="#455a63" font-size="15" font-family="Helvetica"><tspan x="0" y="0">•</tspan></text>
      <text id="_48" data-name=" " transform="translate(5.437 34.302)" fill="#455a63" font-size="12" font-family="Helvetica"><tspan x="0" y="0"> </tspan></text>
      <text id="T-7" data-name="T" transform="translate(23.302 37.302)" fill="#455a63" font-size="15" font-family="Helvetica"><tspan x="0" y="0">T</tspan></text>
      <text id="rend_research-4" data-name="rend research" transform="translate(30.93 37.302)" fill="#455a63" font-size="15" font-family="Helvetica"><tspan x="0" y="0">rend research</tspan></text>
      <text id="_49" data-name="•" transform="translate(0 60.604)" fill="#455a63" font-size="15" font-family="Helvetica"><tspan x="0" y="0">•</tspan></text>
      <text id="_50" data-name=" " transform="translate(5.437 57.604)" fill="#455a63" font-size="12" font-family="Helvetica"><tspan x="0" y="0"> </tspan></text>
      <text id="Humanities_studies-3" data-name="Humanities studies" transform="translate(23.302 60.604)" fill="#455a63" font-size="15" font-family="Helvetica"><tspan x="0" y="0">Humanities studies</tspan></text>
      <text id="_51" data-name="•" transform="translate(0 83.906)" fill="#455a63" font-size="15" font-family="Helvetica"><tspan x="0" y="0">•</tspan></text>
      <text id="_52" data-name=" " transform="translate(5.437 80.906)" fill="#455a63" font-size="12" font-family="Helvetica"><tspan x="0" y="0"> </tspan></text>
      <text id="Competitiv-4" data-name="Competitiv" transform="translate(23.302 83.906)" fill="#455a63" font-size="15" font-family="Helvetica"><tspan x="0" y="0">Competitiv</tspan></text>
      <text id="e_analysis_4" data-name="e analysis " transform="translate(96.283 83.906)" fill="#455a63" font-size="15" font-family="Helvetica"><tspan x="0" y="0">e analysis </tspan></text>
      <text id="_53" data-name="•" transform="translate(0 107.209)" fill="#ff1644" font-size="15" font-family="Helvetica"><tspan x="0" y="0">•</tspan></text>
      <text id="_54" data-name=" " transform="translate(5.437 104.209)" fill="#ff1644" font-size="12" font-family="Helvetica"><tspan x="0" y="0"> </tspan></text>
      <text id="T-8" data-name="T" transform="translate(23.302 107.209)" fill="#ff1644" font-size="15" font-family="Helvetica"><tspan x="0" y="0">T</tspan></text>
      <text id="echnolgies-4" data-name="echnolgies" transform="translate(30.93 107.209)" fill="#ff1644" font-size="15" font-family="Helvetica"><tspan x="0" y="0">echnolgies</tspan></text>
      <text id="_55" data-name="•" transform="translate(0 130.511)" fill="#ff1644" font-size="15" font-family="Helvetica"><tspan x="0" y="0">•</tspan></text>
      <text id="_56" data-name=" " transform="translate(5.437 127.511)" fill="#ff1644" font-size="12" font-family="Helvetica"><tspan x="0" y="0"> </tspan></text>
      <text id="P" transform="translate(23.302 130.511)" fill="#ff1644" font-size="15" font-family="Helvetica"><tspan x="0" y="0">P</tspan></text>
      <text id="ersonas" transform="translate(32.887 130.511)" fill="#ff1644" font-size="15" font-family="Helvetica"><tspan x="0" y="0">ersonas</tspan></text>
      <text id="_57" data-name="•" transform="translate(0 153.813)" fill="#ff1644" font-size="15" font-family="Helvetica"><tspan x="0" y="0">•</tspan></text>
      <text id="_58" data-name=" " transform="translate(5.437 150.813)" fill="#ff1644" font-size="12" font-family="Helvetica"><tspan x="0" y="0"> </tspan></text>
      <text id="User_jour" data-name="User jour" transform="translate(23.302 153.813)" fill="#ff1644" font-size="15" font-family="Helvetica"><tspan x="0" y="0">User jour</tspan></text>
      <text id="ne" transform="translate(86.698 152.813)" fill="#ff1644" font-size="14" font-family="Helvetica"><tspan x="0" y="0">ne</tspan></text>
      <text id="y" transform="translate(103.663 152.813)" fill="#ff1644" font-size="14" font-family="Helvetica"><tspan x="0" y="0">y</tspan></text>
      <text id="_59" data-name="•" transform="translate(0 177.115)" fill="#ff1644" font-size="15" font-family="Helvetica"><tspan x="0" y="0">•</tspan></text>
      <text id="_60" data-name=" " transform="translate(5.437 174.115)" fill="#ff1644" font-size="12" font-family="Helvetica"><tspan x="0" y="0"> </tspan></text>
      <text id="User_e" data-name="User e" transform="translate(23.302 177.115)" fill="#ff1644" font-size="15" font-family="Helvetica"><tspan x="0" y="0">User e</tspan></text>
      <text id="xperience_map" data-name="xperience map" transform="translate(68.586 177.115)" fill="#ff1644" font-size="15" font-family="Helvetica"><tspan x="0" y="0">xperience map</tspan></text>
      <text id="_61" data-name="•" transform="translate(0 200.417)" fill="#ff1644" font-size="15" font-family="Helvetica"><tspan x="0" y="0">•</tspan></text>
      <text id="_62" data-name=" " transform="translate(5.437 197.417)" fill="#ff1644" font-size="12" font-family="Helvetica"><tspan x="0" y="0"> </tspan></text>
      <text id="Prototyping_tools-4" data-name="Prototyping tools" transform="translate(23.302 200.417)" fill="#ff1644" font-size="15" font-family="Helvetica"><tspan x="0" y="0">Prototyping tools</tspan></text>
      <text id="_63" data-name="•" transform="translate(0 223.719)" fill="#ff1644" font-size="15" font-family="Helvetica"><tspan x="0" y="0">•</tspan></text>
      <text id="_64" data-name=" " transform="translate(5.437 220.719)" fill="#ff1644" font-size="12" font-family="Helvetica"><tspan x="0" y="0"> </tspan></text>
      <text id="Usability_testing" data-name="Usability testing" transform="translate(23.302 223.719)" fill="#ff1644" font-size="15" font-family="Helvetica"><tspan x="0" y="0">Usability testing</tspan></text>
      <text id="_65" data-name="•" transform="translate(0 247.021)" fill="#fff" font-size="15" font-family="Helvetica"><tspan x="0" y="0">•</tspan></text>
      <text id="_66" data-name=" " transform="translate(5.437 244.021)" fill="#fff" font-size="12" font-family="Helvetica"><tspan x="0" y="0"> </tspan></text>
      <text id="P-2" data-name="P" transform="translate(23.302 247.021)" fill="#fff" font-size="15" font-family="Helvetica"><tspan x="0" y="0">P</tspan></text>
      <text id="ersonas-2" data-name="ersonas" transform="translate(32.887 247.021)" fill="#fff" font-size="15" font-family="Helvetica"><tspan x="0" y="0">ersonas</tspan></text>
    </g>
    <g id="Group_18" data-name="Group 18" transform="translate(0 -401.811)" clip-path="url(#clip-path)">
      <g id="Group_17" data-name="Group 17" transform="translate(915.732)">
        <path id="Path_2036" data-name="Path 2036" d="M0,0V443.294" fill="none" stroke="#2b2e34" stroke-width="0.25"/>
      </g>
    </g>
    <g id="Group_19" data-name="Group 19" transform="translate(14.832 -272.147)">
      <path id="Path_2038" data-name="Path 2038" d="M0,0H1185.212" fill="none" stroke="#455a63" stroke-linecap="round" stroke-linejoin="round" stroke-width="3" stroke-dasharray="0 9.044"/>
    </g>
    <g id="Group_25" data-name="Group 25" transform="translate(0 -401.811)" clip-path="url(#clip-path)">
      <g id="Group_20" data-name="Group 20" transform="translate(3.208 129.664)">
        <path id="Path_2039" data-name="Path 2039" d="M0,0H0M1202.3,0h0" fill="none" stroke="#455a63" stroke-linecap="round" stroke-linejoin="round" stroke-width="3"/>
      </g>
      <g id="Group_24" data-name="Group 24" transform="translate(1026.39 487.255)" opacity="0.2">
        <g id="Group_23" data-name="Group 23" transform="translate(0 0)">
          <g id="Group_22" data-name="Group 22" clip-path="url(#clip-path-8)">
            <g id="Group_21" data-name="Group 21" transform="translate(11.964 9.062)">
              <path id="Path_2040" data-name="Path 2040" d="M2.87,5.133A11.435,11.435,0,0,0,14.454-6.147,11.434,11.434,0,0,0,2.87-17.425,11.434,11.434,0,0,0-8.713-6.147,11.435,11.435,0,0,0,2.87,5.133" transform="translate(8.713 17.425)" fill="#ff1644"/>
            </g>
          </g>
        </g>
      </g>
    </g>
    <g id="Group-7" data-name="Group" transform="translate(1087.429 96.902)">
      <text id="Le" transform="translate(0 11)" fill="#06060b" font-size="12" font-family="Helvetica"><tspan x="0" y="0">Le</tspan></text>
      <text id="v" transform="translate(14.007 11)" fill="#06060b" font-size="12" font-family="Helvetica"><tspan x="0" y="0">v</tspan></text>
      <text id="el_of_satisf" data-name="el of satisf" transform="translate(20.156 11)" fill="#06060b" font-size="12" font-family="Helvetica"><tspan x="0" y="0">el of satisf</tspan></text>
      <text id="action" transform="translate(78.049 11)" fill="#06060b" font-size="12" font-family="Helvetica"><tspan x="0" y="0">action</tspan></text>
    </g>
    <g id="Group_27" data-name="Group 27" transform="translate(0 -401.811)" clip-path="url(#clip-path)">
      <g id="Group_26" data-name="Group 26" transform="translate(851.816 496.317)">
        <path id="Path_2042" data-name="Path 2042" d="M2.87,5.133A11.435,11.435,0,0,0,14.454-6.147,11.434,11.434,0,0,0,2.87-17.425,11.434,11.434,0,0,0-8.713-6.147,11.435,11.435,0,0,0,2.87,5.133" transform="translate(8.713 17.425)" fill="#ff1644"/>
      </g>
    </g>
    <text id="New_skills" data-name="New skills" transform="translate(898.414 107.385)" fill="#06060b" font-size="12" font-family="Helvetica"><tspan x="0" y="0">New skills</tspan></text>
  </g>
</svg>
